<?xml version="1.0" encoding="UTF-8"?>
<svg id="Layer_2" data-name="Layer 2" xmlns="http://www.w3.org/2000/svg" viewBox="0 0 100 59.69">
  <defs>
    <style>
      .cls-1, .cls-2, .cls-3 {
        stroke-width: 0px;
      }

      .cls-2 {
        fill: #f5871f;
      }

      .cls-3 {
        fill: #fff;
      }
    </style>
  </defs>
  <g id="Light">
    <g>
      <g>
        <path class="cls-1" d="M15.65,41.74c1.97.75,2.96,2.13,2.96,4.14,0,1.6-.57,2.86-1.72,3.77-.58.45-1.26.78-2.03.98-.77.2-1.72.3-2.85.3H0v-.41c.31-.09.52-.2.64-.33.12-.14.18-.34.18-.6v-14.86c0-.27-.06-.47-.18-.6-.12-.14-.33-.25-.64-.33v-.41h11.89c1.14,0,2.06.09,2.75.26s1.3.46,1.83.88c1.04.82,1.56,1.99,1.56,3.53,0,1.72-.79,2.95-2.38,3.71ZM4.66,40.37h6.73c1.02,0,1.73-.15,2.14-.45.45-.34.68-.88.68-1.6s-.21-1.26-.64-1.58c-.43-.31-1.15-.47-2.17-.47h-6.73v4.09ZM4.66,48.05h6.51c1.21,0,2.08-.17,2.61-.5.61-.39.91-1.02.91-1.89s-.3-1.5-.91-1.89c-.52-.33-1.39-.5-2.61-.5h-6.51v4.79Z"/>
        <path class="cls-1" d="M27.42,49.59v-14.88c0-.26-.06-.45-.18-.59-.12-.14-.33-.25-.64-.33v-.41h5.48v.41c-.31.08-.52.19-.64.33-.12.14-.18.34-.18.6v14.88c0,.27.06.47.19.61.12.14.34.25.64.33v.41h-5.48v-.41c.31-.09.52-.2.64-.33.12-.14.18-.34.18-.6Z"/>
        <path class="cls-1" d="M49.26,45.84l4.66-10.31c.2-.44.3-.78.3-1.02,0-.37-.28-.61-.85-.72v-.41h6.01v.41c-.38.05-.64.16-.79.32s-.4.63-.76,1.42l-6.09,13.14c-.26.56-.39.92-.39,1.09,0,.44.27.69.81.77v.41h-6.05v-.41c.54-.08.81-.34.81-.78,0-.16-.13-.52-.39-1.08l-6.09-13.14c-.36-.78-.61-1.25-.76-1.42s-.41-.27-.79-.32v-.41h6.24v.41c-.57.11-.85.35-.85.72,0,.24.1.58.3,1.02l4.67,10.31Z"/>
        <path class="cls-1" d="M67.05,49.59v-14.88c0-.26-.06-.45-.18-.59-.12-.14-.33-.25-.64-.33v-.41h5.48v.41c-.31.08-.52.19-.64.33-.12.14-.18.34-.18.6v14.88c0,.27.06.47.19.61s.34.25.64.33v.41h-5.48v-.41c.31-.09.52-.2.64-.33.12-.14.18-.34.18-.6Z"/>
        <path class="cls-1" d="M89.87,33.07c3.06,0,5.49.83,7.29,2.48,1.9,1.73,2.85,3.97,2.85,6.72,0,1.68-.45,3.25-1.36,4.71-1.78,2.85-4.69,4.27-8.74,4.27-3.04,0-5.46-.83-7.25-2.48-.96-.88-1.69-1.94-2.19-3.18-.44-1.09-.66-2.23-.66-3.44,0-1.76.45-3.37,1.35-4.83,1.73-2.79,4.63-4.21,8.72-4.26ZM89.88,36.06c-1.67,0-3.07.5-4.19,1.49-1.32,1.17-1.98,2.71-1.98,4.61s.66,3.44,1.98,4.61c1.12.99,2.52,1.49,4.21,1.49s3.09-.5,4.2-1.49c.66-.59,1.17-1.32,1.52-2.17.31-.76.46-1.55.46-2.37,0-1.99-.66-3.55-1.98-4.69-1.12-.98-2.53-1.47-4.23-1.49Z"/>
      </g>
      <g>
        <path class="cls-1" d="M4.16,55.91h-1.69v3.7h-.78v-3.7H0v-.67h4.16v.67Z"/>
        <path class="cls-1" d="M8.71,59.61l-1.19-1.71h-1.41v1.71h-.78v-4.37h2.61c.96,0,1.49.47,1.49,1.33,0,.71-.36,1.15-1.02,1.29l1.23,1.75h-.93ZM6.1,57.23h1.72c.55,0,.81-.22.81-.66s-.26-.66-.81-.66h-1.72v1.32Z"/>
        <path class="cls-1" d="M14.1,58.56h-2.2l-.47,1.05h-.82l2-4.37h.79l2,4.37h-.85l-.47-1.05ZM12.19,57.91h1.62l-.81-1.86-.81,1.86Z"/>
        <path class="cls-1" d="M20.72,55.24v4.37h-.73l-2.69-3.5v3.5h-.75v-4.37h.98l2.43,3.17v-3.17h.75Z"/>
        <path class="cls-1" d="M21.98,59.06l.33-.62c.51.37,1.14.57,1.82.57.81,0,1.24-.22,1.24-.65,0-.36-.31-.5-1.28-.57-1.4-.11-1.91-.45-1.91-1.28s.71-1.34,1.92-1.34c.72,0,1.33.18,1.82.53l-.31.6c-.42-.3-.94-.45-1.52-.45-.7,0-1.12.23-1.12.63,0,.36.31.5,1.28.57,1.41.11,1.92.45,1.92,1.28,0,.89-.71,1.36-2.02,1.36-.85,0-1.59-.22-2.16-.63Z"/>
        <path class="cls-1" d="M31.5,56.62c0,.9-.55,1.39-1.55,1.39h-1.71v1.6h-.78v-4.37h2.49c1,0,1.55.49,1.55,1.38ZM30.71,56.62c0-.48-.28-.71-.87-.71h-1.6v1.43h1.6c.58,0,.87-.23.87-.72Z"/>
        <path class="cls-1" d="M32.56,57.43c0-1.36.96-2.26,2.39-2.26s2.4.91,2.4,2.26-.96,2.26-2.4,2.26-2.39-.91-2.39-2.26ZM36.55,57.43c0-.94-.64-1.57-1.6-1.57s-1.6.63-1.6,1.57.65,1.57,1.6,1.57,1.6-.63,1.6-1.57Z"/>
        <path class="cls-1" d="M42.08,59.61l-1.19-1.71h-1.41v1.71h-.78v-4.37h2.61c.96,0,1.49.47,1.49,1.33,0,.71-.36,1.15-1.02,1.29l1.23,1.75h-.93ZM39.47,57.23h1.72c.55,0,.81-.22.81-.66s-.26-.66-.81-.66h-1.72v1.32Z"/>
        <path class="cls-1" d="M48.01,55.91h-1.69v3.7h-.78v-3.7h-1.69v-.67h4.16v.67Z"/>
        <path class="cls-1" d="M54.85,59.61l-.48-.42c-.38.33-.91.5-1.54.5-1.05,0-1.71-.49-1.71-1.3,0-.7.49-1.01,1-1.19-.28-.3-.39-.55-.39-.88,0-.72.55-1.15,1.41-1.15s1.37.42,1.37,1.11-.53.96-1.16,1.14l.99.86c.17-.28.29-.62.33-1.01l.73.07c-.06.53-.25,1-.56,1.37l1.03.9h-1.02ZM53.88,58.77l-1.33-1.16c-.35.12-.7.3-.7.73,0,.45.4.74,1.03.74.39,0,.72-.1,1-.3ZM52.46,56.32c0,.22.1.39.42.67.65-.16.94-.28.94-.67,0-.37-.26-.57-.69-.57s-.68.21-.68.57Z"/>
        <path class="cls-1" d="M62.94,58.94v.67h-3.75v-4.37h.78v3.7h2.97Z"/>
        <path class="cls-1" d="M63.76,57.43c0-1.36.96-2.26,2.39-2.26s2.4.91,2.4,2.26-.96,2.26-2.4,2.26-2.39-.91-2.39-2.26ZM67.75,57.43c0-.94-.64-1.57-1.6-1.57s-1.6.63-1.6,1.57.65,1.57,1.6,1.57,1.6-.63,1.6-1.57Z"/>
        <path class="cls-1" d="M74.01,59.14c-.46.35-1.1.55-1.84.55-1.56,0-2.52-.87-2.52-2.25s.96-2.27,2.48-2.27c.62,0,1.16.15,1.63.46l-.25.64c-.45-.28-.89-.4-1.35-.4-1.06,0-1.72.62-1.72,1.57s.68,1.57,1.77,1.57c.37,0,.71-.07,1.03-.21v-.94h-1.32v-.67h2.08v1.97Z"/>
        <path class="cls-1" d="M75.46,55.24h.78v4.37h-.78v-4.37Z"/>
        <path class="cls-1" d="M77.5,59.06l.33-.62c.51.37,1.14.57,1.82.57.81,0,1.24-.22,1.24-.65,0-.36-.31-.5-1.29-.57-1.4-.11-1.91-.45-1.91-1.28s.71-1.34,1.92-1.34c.72,0,1.33.18,1.82.53l-.31.6c-.42-.3-.94-.45-1.52-.45-.7,0-1.12.23-1.12.63,0,.36.31.5,1.28.57,1.41.11,1.92.45,1.92,1.28,0,.89-.71,1.36-2.02,1.36-.85,0-1.59-.22-2.16-.63Z"/>
        <path class="cls-1" d="M86.74,55.91h-1.69v3.7h-.78v-3.7h-1.69v-.67h4.16v.67Z"/>
        <path class="cls-1" d="M87.91,55.24h.78v4.37h-.78v-4.37Z"/>
        <path class="cls-1" d="M90.02,57.44c0-1.39.95-2.27,2.44-2.27.61,0,1.14.15,1.61.46l-.25.64c-.44-.28-.87-.4-1.32-.4-1.03,0-1.68.62-1.68,1.57s.66,1.57,1.73,1.57c.51,0,.97-.14,1.39-.43l.28.64c-.42.31-1.04.48-1.72.48-1.53,0-2.48-.87-2.48-2.25Z"/>
        <path class="cls-1" d="M95.21,59.06l.33-.62c.51.37,1.14.57,1.82.57.81,0,1.24-.22,1.24-.65,0-.36-.31-.5-1.29-.57-1.4-.11-1.91-.45-1.91-1.28s.71-1.34,1.92-1.34c.72,0,1.33.18,1.82.53l-.31.6c-.42-.3-.94-.45-1.52-.45-.7,0-1.12.23-1.12.63,0,.36.31.5,1.28.57,1.41.11,1.92.45,1.92,1.28,0,.89-.71,1.36-2.02,1.36-.85,0-1.59-.22-2.16-.63Z"/>
      </g>
    </g>
    <g>
      <path class="cls-3" d="M61.8.31v20.92c0,.48-.14.93-.41,1.33-.27.39-.64.69-1.09.86l-10.25,3.97s-.03.01-.05.01c-.02,0-.04,0-.06-.01l-10.25-3.97c-.44-.17-.82-.47-1.09-.86-.27-.39-.41-.85-.41-1.33V.31c0-.17.14-.31.31-.31h22.99c.17,0,.31.14.31.31Z"/>
      <path class="cls-2" d="M60.95,8.56v12.57c0,.81-.5,1.53-1.26,1.81l-9.51,3.53c-.06.02-.12.03-.18.03h0V8.56h10.95Z"/>
      <path class="cls-1" d="M39.05.8v20.32c0,.81.5,1.53,1.26,1.81l9.51,3.53c.06.02.11.03.17.03h0c.06,0,.12-.01.18-.03l9.51-3.53c.75-.28,1.26-1,1.26-1.81V.8h-21.89ZM39.55,4.3h2.96V1.3h3v3h3V1.3h3v3h3V1.3h3v3h2.96v2.98h-2.96v-2.98h-3v2.98h-3v-2.98h-3v2.98h-3v-2.98h-3v2.98h-2.96v-2.98h0ZM60.05,7.57v.83h-.88v-.83h.88ZM58.29,7.57v.83h-.88v-.83h.88ZM56.53,7.57v.83h-.88v-.83h.88ZM54.78,7.57v.83h-.88v-.83h.88ZM53.02,7.57v.83h-.88v-.83h.88ZM51.26,7.57v.83h-.88v-.83h.88ZM49.5,7.57v.83h-.88v-.83h.88ZM47.74,7.57v.83h-.88v-.83h.88ZM45.98,7.57v.83h-.88v-.83h.88ZM44.23,7.57v.83h-.88v-.83h.88ZM42.47,7.57v.83h-.88v-.83h.88ZM40.71,7.57v.83h-.88v-.83h.88ZM60.45,21.12c0,.6-.38,1.14-.94,1.34l-9.51,3.53s0,0,0,0,0,0,0,0h0l-9.51-3.53c-.56-.21-.94-.75-.94-1.34v-12.42h20.91v12.42h0Z"/>
    </g>
  </g>
</svg>